<svg width="14" height="17" viewBox="0 0 14 17" fill="none" xmlns="http://www.w3.org/2000/svg">
<path d="M9.24678 2.97318H1.34385C0.602294 2.97318 0 3.57547 0 4.31702V15.6561C0 16.3977 0.602294 17 1.34385 17H9.24678C9.98833 17 10.5906 16.3977 10.5906 15.6561V4.31702C10.5871 3.57547 9.98485 2.97318 9.24678 2.97318ZM9.64714 15.6527C9.64714 15.8755 9.46611 16.0565 9.24329 16.0565H1.34036C1.11755 16.0565 0.936515 15.8755 0.936515 15.6527V4.31702C0.936515 4.09421 1.11755 3.91317 1.34036 3.91317H9.24329C9.46611 3.91317 9.64714 4.09421 9.64714 4.31702V15.6527Z" fill="white"/>
<path d="M12.2687 0H4.36576C3.62421 0 3.02191 0.602294 3.02191 1.34385C3.02191 1.60496 3.2308 1.81384 3.49191 1.81384C3.75302 1.81384 3.96191 1.60496 3.96191 1.34385C3.96191 1.12103 4.14294 0.939996 4.36576 0.939996H12.2687C12.4915 0.939996 12.6725 1.12103 12.6725 1.34385V12.683C12.6725 12.9058 12.4915 13.0868 12.2687 13.0868C12.0076 13.0868 11.7987 13.2957 11.7987 13.5568C11.7987 13.8179 12.0076 14.0268 12.2687 14.0268C13.0102 14.0268 13.6125 13.4245 13.6125 12.683V1.34385C13.6125 0.602294 13.0102 0 12.2687 0Z" fill="white"/>
</svg>
