<svg width="512" height="512" viewBox="0 0 512 512" fill="none" xmlns="http://www.w3.org/2000/svg">
<g clip-path="url(#clip0)">
<path d="M267.605 203.52V229.262C267.605 237.438 269.238 244.297 272.461 249.641C276.906 257.016 284.203 261.242 292.488 261.242C300.605 261.242 308.672 257.289 316.461 249.5L401.484 164.477C420.152 145.809 420.152 115.434 401.484 96.7656L316.461 11.7422C308.672 3.94922 300.605 0 292.488 0C280.102 0 267.605 9.89062 267.605 31.9805V55.3594C146.895 62.4883 46.9649 155.125 32.1133 276.41C31.2813 283.184 35.1328 289.668 41.4805 292.18C43.2774 292.891 45.1485 293.234 46.9961 293.234C51.6758 293.234 56.2149 291.043 59.1055 287.094C98.9414 232.664 162.902 200.168 230.199 200.168C242.668 200.168 255.207 201.293 267.605 203.52V203.52Z" fill="#5FAB86"/>
<path d="M470.254 219.82C463.906 217.305 456.664 219.398 452.629 224.91C412.797 279.336 348.836 311.832 281.539 311.832C269.07 311.832 256.531 310.707 244.133 308.48V282.738C244.133 260.648 231.633 250.758 219.25 250.758C211.133 250.758 203.066 254.711 195.273 262.504L110.25 347.523C91.5859 366.191 91.5859 396.566 110.254 415.238L195.273 500.258C203.066 508.051 211.133 512 219.25 512C231.633 512 244.133 502.109 244.133 480.02V456.641C364.848 449.512 464.773 356.875 479.625 235.594C480.457 228.816 476.605 222.332 470.254 219.82V219.82Z" fill="#5FAB86"/>
</g>
<defs>
<clipPath id="clip0">
<rect width="512" height="512" fill="white"/>
</clipPath>
</defs>
</svg>
