<svg width="25" height="25" viewBox="0 0 25 25" fill="none" xmlns="http://www.w3.org/2000/svg">
<g clip-path="url(#clip0)">
<path d="M23.074 15.7048C22.7301 15.7048 22.4514 15.9836 22.4514 16.3275V21.8557C22.4502 22.887 21.6147 23.7226 20.5835 23.7236H3.11315C2.08192 23.7226 1.24648 22.887 1.24526 21.8557V5.63063C1.24648 4.59965 2.08192 3.76396 3.11315 3.76275H8.64142C8.98532 3.76275 9.26405 3.48402 9.26405 3.14012C9.26405 2.79645 8.98532 2.51749 8.64142 2.51749H3.11315C1.39459 2.51943 0.00194572 3.91208 0 5.63063V21.856C0.00194572 23.5745 1.39459 24.9672 3.11315 24.9691H20.5835C22.3021 24.9672 23.6947 23.5745 23.6966 21.856V16.3275C23.6966 15.9836 23.4179 15.7048 23.074 15.7048Z" fill="#FFD602"/>
<path d="M23.45 0.915424C22.3558 -0.178799 20.5818 -0.178799 19.4876 0.915424L8.37947 12.0235C8.30335 12.0997 8.24838 12.194 8.21968 12.2976L6.75893 17.5713C6.69886 17.7875 6.75991 18.019 6.91848 18.1778C7.0773 18.3364 7.30884 18.3975 7.52506 18.3376L12.7987 16.8766C12.9023 16.8479 12.9967 16.793 13.0728 16.7168L24.1806 5.6085C25.2732 4.51354 25.2732 2.74099 24.1806 1.64604L23.45 0.915424ZM9.73613 12.4282L18.8272 3.33687L21.7592 6.26882L12.6678 15.3602L9.73613 12.4282ZM9.15046 13.6035L11.4929 15.9461L8.25276 16.8438L9.15046 13.6035ZM23.3002 4.72806L22.6399 5.38839L19.7077 2.45619L20.3683 1.79586C20.9761 1.18807 21.9616 1.18807 22.5694 1.79586L23.3002 2.52648C23.907 3.135 23.907 4.11978 23.3002 4.72806Z" fill="#FFD602"/>
</g>
<defs>
<clipPath id="clip0">
<rect width="25" height="25" fill="white"/>
</clipPath>
</defs>
</svg>
