<svg width="32" height="20" viewBox="0 0 32 20" fill="none" xmlns="http://www.w3.org/2000/svg">
<path d="M31.1799 9.38966C30.8995 9.00619 24.2202 0 15.6895 0C7.15879 0 0.479148 9.00619 0.199124 9.3893C-0.0663747 9.7531 -0.0663747 10.2465 0.199124 10.6103C0.479148 10.9938 7.15879 20 15.6895 20C24.2202 20 30.8995 10.9938 31.1799 10.6106C31.4457 10.2469 31.4457 9.7531 31.1799 9.38966ZM15.6895 17.931C9.40572 17.931 3.9633 11.9535 2.35223 9.9993C3.96122 8.04342 9.39224 2.06896 15.6895 2.06896C21.973 2.06896 27.415 8.0455 29.0268 10.0007C27.4178 11.9565 21.9868 17.931 15.6895 17.931Z" fill="#FFD602"/>
<path d="M15.6895 3.79303C12.2671 3.79303 9.48257 6.57752 9.48257 9.99996C9.48257 13.4224 12.2671 16.2069 15.6895 16.2069C19.1119 16.2069 21.8964 13.4224 21.8964 9.99996C21.8964 6.57752 19.1119 3.79303 15.6895 3.79303ZM15.6895 14.1379C13.4078 14.1379 11.5516 12.2816 11.5516 9.99996C11.5516 7.71827 13.4078 5.86205 15.6895 5.86205C17.9712 5.86205 19.8274 7.71827 19.8274 9.99996C19.8274 12.2816 17.9712 14.1379 15.6895 14.1379Z" fill="#FFD602"/>
</svg>
