<svg width="49" height="31" viewBox="0 0 49 31" fill="none" xmlns="http://www.w3.org/2000/svg">
<path d="M47.7449 14.3781C47.3157 13.7909 37.0878 0 24.0249 0C10.9621 0 0.733707 13.7909 0.304914 14.3776C-0.101638 14.9347 -0.101638 15.6902 0.304914 16.2473C0.733707 16.8345 10.9621 30.6255 24.0249 30.6255C37.0878 30.6255 47.3157 16.8344 47.7449 16.2478C48.152 15.6908 48.152 14.9347 47.7449 14.3781ZM24.0249 27.4573C14.4027 27.4573 6.0689 18.304 3.6019 15.3117C6.06571 12.3167 14.3821 3.16814 24.0249 3.16814C33.6466 3.16814 41.9799 12.3199 44.4479 15.3138C41.9841 18.3087 33.6678 27.4573 24.0249 27.4573Z" fill="#E4E4E4"/>
<path d="M24.0249 5.80829C18.7842 5.80829 14.5204 10.0721 14.5204 15.3128C14.5204 20.5535 18.7842 24.8173 24.0249 24.8173C29.2656 24.8173 33.5294 20.5535 33.5294 15.3128C33.5294 10.0721 29.2656 5.80829 24.0249 5.80829ZM24.0249 21.6491C20.5309 21.6491 17.6886 18.8067 17.6886 15.3128C17.6886 11.8189 20.531 8.97652 24.0249 8.97652C27.5188 8.97652 30.3612 11.8189 30.3612 15.3128C30.3612 18.8067 27.5189 21.6491 24.0249 21.6491Z" fill="#E4E4E4"/>
</svg>
