<svg width="10" height="12" viewBox="0 0 10 12" fill="none" xmlns="http://www.w3.org/2000/svg">
<path d="M8.9375 1.5H6.875V1.125C6.875 0.503672 6.37133 0 5.75 0H4.25C3.62867 0 3.125 0.503672 3.125 1.125V1.5H1.0625C0.544742 1.5 0.125 1.91974 0.125 2.4375V3.1875C0.125 3.39462 0.292883 3.5625 0.5 3.5625H9.5C9.70712 3.5625 9.875 3.39462 9.875 3.1875V2.4375C9.875 1.91974 9.45526 1.5 8.9375 1.5ZM3.875 1.125C3.875 0.918281 4.04328 0.75 4.25 0.75H5.75C5.95672 0.75 6.125 0.918281 6.125 1.125V1.5H3.875V1.125Z" fill="white"/>
<path d="M0.836665 4.3125C0.769751 4.3125 0.716431 4.36842 0.719618 4.43527L1.02899 10.9284C1.05759 11.5294 1.55118 12 2.15259 12H7.84743C8.44884 12 8.94243 11.5294 8.97103 10.9284L9.2804 4.43527C9.28359 4.36842 9.23027 4.3125 9.16336 4.3125H0.836665ZM6.50001 5.25C6.50001 5.04281 6.66782 4.875 6.87501 4.875C7.0822 4.875 7.25001 5.04281 7.25001 5.25V10.125C7.25001 10.3322 7.0822 10.5 6.87501 10.5C6.66782 10.5 6.50001 10.3322 6.50001 10.125V5.25ZM4.62501 5.25C4.62501 5.04281 4.79282 4.875 5.00001 4.875C5.2072 4.875 5.37501 5.04281 5.37501 5.25V10.125C5.37501 10.3322 5.2072 10.5 5.00001 10.5C4.79282 10.5 4.62501 10.3322 4.62501 10.125V5.25ZM2.75001 5.25C2.75001 5.04281 2.91782 4.875 3.12501 4.875C3.3322 4.875 3.50001 5.04281 3.50001 5.25V10.125C3.50001 10.3322 3.3322 10.5 3.12501 10.5C2.91782 10.5 2.75001 10.3322 2.75001 10.125V5.25Z" fill="white"/>
</svg>
