<svg width="97" height="97" viewBox="0 0 97 97" fill="none" xmlns="http://www.w3.org/2000/svg">
<path d="M31.4492 62.8984H65.5508C67.1202 62.8984 68.3926 61.6261 68.3926 60.0566C68.3926 58.4872 67.1202 57.2148 65.5508 57.2148H31.4492C29.8798 57.2148 28.6074 58.4872 28.6074 60.0566C28.6074 61.6261 29.8798 62.8984 31.4492 62.8984Z" fill="white"/>
<path d="M31.4492 74.2656H65.5508C67.1202 74.2656 68.3926 72.9933 68.3926 71.4238C68.3926 69.8544 67.1202 68.582 65.5508 68.582H31.4492C29.8798 68.582 28.6074 69.8544 28.6074 71.4238C28.6074 72.9933 29.8798 74.2656 31.4492 74.2656Z" fill="white"/>
<path d="M96.1675 15.9887L81.0113 0.832457C80.4784 0.299336 79.7556 0 79.002 0H2.8418C1.27237 0 0 1.27237 0 2.8418V94.1582C0 95.7276 1.27237 97 2.8418 97C4.1513 97 93.3047 97 94.1582 97C95.7276 97 97 95.7276 97 94.1582V17.998C97 17.2442 96.7005 16.5214 96.1675 15.9887ZM22.9238 5.68359H62.709V24.6289H22.9238V5.68359ZM74.0762 91.3164H22.9238V51.5312H74.0762V91.3164ZM91.3164 91.3164H79.7598V48.6895C79.7598 47.12 78.4874 45.8477 76.918 45.8477H20.082C18.5126 45.8477 17.2402 47.12 17.2402 48.6895V91.3164H5.68359V5.68359H17.2402V27.4707C17.2402 29.0401 18.5126 30.3125 20.082 30.3125H65.5508C67.1202 30.3125 68.3926 29.0401 68.3926 27.4707V5.68359H77.8249L91.3164 19.1751V91.3164Z" fill="white"/>
<path d="M31.4492 85.6328H65.5508C67.1202 85.6328 68.3926 84.3604 68.3926 82.791C68.3926 81.2216 67.1202 79.9492 65.5508 79.9492H31.4492C29.8798 79.9492 28.6074 81.2216 28.6074 82.791C28.6074 84.3604 29.8798 85.6328 31.4492 85.6328Z" fill="white"/>
</svg>
